<?xml version="1.0" standalone="no"?>
<!DOCTYPE svg PUBLIC "-//W3C//DTD SVG 20010904//EN"
 "http://www.w3.org/TR/2001/REC-SVG-20010904/DTD/svg10.dtd">
<svg version="1.0" xmlns="http://www.w3.org/2000/svg"
 width="512.000000pt" height="512.000000pt" viewBox="0 0 512.000000 512.000000"
 preserveAspectRatio="xMidYMid meet">
<metadata>
Created by potrace 1.11, written by Peter Selinger 2001-2013
</metadata>
<g transform="translate(0.000000,512.000000) scale(0.100000,-0.100000)"
fill="#000000" stroke="none">
<path d="M2485 4999 c-38 -23 -88 -51 -110 -64 -22 -12 -202 -116 -400 -230
-198 -114 -373 -216 -390 -225 -106 -60 -961 -555 -1055 -610 l-116 -68 2
-1234 c0 -678 2 -1238 3 -1245 0 -6 13 -18 29 -25 15 -8 218 -125 452 -260
234 -135 441 -255 460 -265 19 -11 58 -34 86 -50 27 -17 70 -41 95 -55 24 -14
73 -42 109 -63 36 -21 83 -48 105 -60 22 -13 108 -62 190 -111 83 -48 159 -92
170 -98 19 -11 227 -130 263 -151 9 -5 54 -31 99 -57 45 -27 85 -48 88 -48 4
0 37 17 73 39 37 21 83 48 102 58 19 11 139 80 265 153 127 73 244 140 260
150 17 9 87 50 155 90 69 40 141 82 160 92 37 21 264 153 290 168 21 13 723
417 790 455 l55 31 0 1244 0 1244 -72 43 c-40 23 -193 112 -340 196 -147 85
-335 194 -416 241 -82 47 -151 86 -153 86 -2 0 -41 23 -85 50 -44 28 -82 50
-85 50 -2 0 -32 17 -66 38 -35 21 -70 41 -78 45 -8 4 -22 11 -30 17 -52 34
-816 470 -824 470 -6 0 -42 -19 -81 -41z m171 -639 c47 -27 86 -50 88 -50 2 0
56 -31 120 -70 65 -38 119 -70 121 -70 2 0 49 -27 105 -60 56 -33 103 -60 106
-60 2 0 28 -16 58 -35 30 -19 57 -35 60 -35 3 0 35 -18 71 -40 36 -22 68 -40
71 -40 2 0 17 -8 32 -19 15 -10 174 -103 355 -207 l327 -188 0 -363 c0 -200
-3 -363 -6 -363 -5 0 -159 87 -259 147 -11 7 -27 15 -35 19 -8 4 -43 25 -78
46 -34 21 -64 38 -66 38 -2 0 -66 36 -142 81 -101 59 -143 78 -154 71 -8 -5
-241 -138 -517 -296 l-503 -287 -236 135 c-129 75 -237 136 -239 136 -2 0
-127 -70 -277 -156 -150 -86 -363 -208 -472 -271 -110 -63 -204 -115 -210
-116 -8 -1 -11 172 -12 591 -1 527 1 595 15 600 8 3 76 42 151 85 74 44 155
91 180 105 49 27 169 97 555 320 138 79 268 155 290 167 265 153 266 153 339
197 33 20 65 37 69 38 5 0 46 -22 93 -50z m960 -1920 c85 -50 175 -102 199
-116 25 -13 114 -64 197 -113 l153 -89 3 -244 2 -243 -44 -25 c-39 -22 -86
-49 -310 -179 -23 -13 -115 -66 -206 -119 -91 -52 -235 -135 -320 -185 -85
-49 -175 -101 -200 -115 -25 -14 -152 -87 -284 -163 -207 -120 -242 -137 -260
-127 -11 6 -131 75 -266 153 -135 78 -265 153 -290 167 -25 14 -142 82 -261
151 -120 69 -234 136 -255 148 -22 12 -97 55 -169 97 -71 41 -150 86 -175 100
-105 59 -165 100 -165 112 0 11 277 177 550 330 28 15 95 54 150 85 257 149
268 154 288 143 20 -10 248 -140 277 -158 52 -31 375 -217 394 -227 12 -7 92
-53 176 -102 173 -100 153 -100 207 -1 17 30 73 129 126 220 86 149 94 166 78
176 -16 12 -50 31 -184 106 -31 18 -56 36 -55 40 5 13 452 267 471 267 10 1
87 -40 173 -89z"/>
</g>
</svg>
