<?xml version="1.0" encoding="UTF-8" standalone="no"?>
<svg width="327px" height="222px" viewBox="0 0 327 222" version="1.1" xmlns="http://www.w3.org/2000/svg" xmlns:xlink="http://www.w3.org/1999/xlink">
    <!-- Generator: Sketch 42 (36781) - http://www.bohemiancoding.com/sketch -->
    <title>api-index-welcome-graphic</title>
    <desc>Created with Sketch.</desc>
    <defs></defs>
    <g id="Page-1-Copy-3" stroke="none" stroke-width="1" fill="none" fill-rule="evenodd">
        <g id="Artboard" transform="translate(-432.000000, -332.000000)">
            <g id="api-index-welcome-graphic" transform="translate(435.000000, 334.000000)">
                <path d="M180,206.205607 L318.002025,206.205607 C319.655772,206.205607 321,204.858057 321,203.19577 L321,10.0098375 C321,8.35147183 319.657761,7 318.002025,7 L2.99797485,7 C1.34422786,7 0,8.34755015 0,10.0098375 L0,203.19577 C0,204.854136 1.34223906,206.205607 2.99797485,206.205607 L142,206.205607 L142,213.002525 C142,215.214932 143.788552,217 145.994844,217 L176.005156,217 C178.218149,217 180,215.210269 180,213.002525 L180,206.205607 Z" id="Combined-Shape" stroke="#415171" stroke-width="6" fill="#607192"></path>
                <rect id="Rectangle-4" fill="#CCD6EC" x="11" y="10" width="299" height="187"></rect>
                <path d="M14,10 L144.998026,10 C152.731103,10 159,16.2744909 159,23.9932039 L159,190 L14,190 L14,10 Z" id="Rectangle-4-Copy" fill="#F6F8FD"></path>
                <path d="M167,10 L292.003591,10 C299.733594,10 306,16.2744909 306,23.9932039 L306,190 L167,190 L167,10 Z" id="Rectangle-4-Copy-2" fill="#F6F8FD" transform="translate(236.500000, 100.000000) scale(-1, 1) translate(-236.500000, -100.000000) "></path>
                <path d="M13,183 L151.006349,183 C154.868836,183 158,186.141873 158,190 L158,197 L13,197 L13,183 Z" id="Rectangle-4-Copy-4" fill="#CCD5EB"></path>
                <path d="M310,183 L174.848955,183 C171.066382,183 168,186.141873 168,190 L168,197 L310,197 L310,183 Z" id="Rectangle-4-Copy-3" fill="#CCD5EB"></path>
                <g id="Group-5" transform="translate(31.000000, 30.000000)" fill="#DDE2F0">
                    <rect id="Rectangle-7" x="0" y="0" width="61" height="8" rx="4"></rect>
                    <rect id="Rectangle-7-Copy-7" x="67" y="0" width="30" height="8" rx="4"></rect>
                    <rect id="Rectangle-7-Copy-8" x="1" y="20" width="16" height="8" rx="4"></rect>
                    <rect id="Rectangle-7-Copy-14" x="76" y="40" width="16" height="8" rx="4"></rect>
                    <rect id="Rectangle-7-Copy-9" x="29" y="60" width="16" height="8" rx="4"></rect>
                    <rect id="Rectangle-7-Copy-10" x="69" y="100" width="16" height="8" rx="4"></rect>
                    <rect id="Rectangle-7-Copy-11" x="1" y="120" width="34" height="8" rx="4"></rect>
                    <rect id="Rectangle-7-Copy-12" x="1" y="80" width="24" height="8" rx="4"></rect>
                    <rect id="Rectangle-7-Copy-13" x="1" y="60" width="24" height="8" rx="4"></rect>
                    <rect id="Rectangle-7-Copy" x="20" y="20" width="61" height="8" rx="4"></rect>
                    <rect id="Rectangle-7-Copy-2" x="10" y="40" width="61" height="8" rx="4"></rect>
                    <rect id="Rectangle-7-Copy-3" x="50" y="60" width="61" height="8" rx="4"></rect>
                    <rect id="Rectangle-7-Copy-4" x="30" y="80" width="61" height="8" rx="4"></rect>
                    <rect id="Rectangle-7-Copy-5" x="0" y="100" width="61" height="8" rx="4"></rect>
                    <rect id="Rectangle-7-Copy-6" x="40" y="120" width="61" height="8" rx="4"></rect>
                </g>
                <g id="Group-5-Copy" transform="translate(239.500000, 94.000000) scale(1, -1) translate(-239.500000, -94.000000) translate(184.000000, 30.000000)" fill="#DDE2F0">
                    <rect id="Rectangle-7" x="0" y="0" width="61" height="8" rx="4"></rect>
                    <rect id="Rectangle-7-Copy-7" x="67" y="0" width="30" height="8" rx="4"></rect>
                    <rect id="Rectangle-7-Copy-8" x="1" y="20" width="16" height="8" rx="4"></rect>
                    <rect id="Rectangle-7-Copy-14" x="76" y="40" width="16" height="8" rx="4"></rect>
                    <rect id="Rectangle-7-Copy-9" x="29" y="60" width="16" height="8" rx="4"></rect>
                    <rect id="Rectangle-7-Copy-10" x="69" y="100" width="16" height="8" rx="4"></rect>
                    <rect id="Rectangle-7-Copy-11" x="1" y="120" width="34" height="8" rx="4"></rect>
                    <rect id="Rectangle-7-Copy-12" x="1" y="80" width="24" height="8" rx="4"></rect>
                    <rect id="Rectangle-7-Copy-13" x="1" y="60" width="24" height="8" rx="4"></rect>
                    <rect id="Rectangle-7-Copy" x="20" y="20" width="61" height="8" rx="4"></rect>
                    <rect id="Rectangle-7-Copy-2" x="10" y="40" width="61" height="8" rx="4"></rect>
                    <rect id="Rectangle-7-Copy-3" x="50" y="60" width="61" height="8" rx="4"></rect>
                    <rect id="Rectangle-7-Copy-4" x="30" y="80" width="61" height="8" rx="4"></rect>
                    <rect id="Rectangle-7-Copy-5" x="0" y="100" width="61" height="8" rx="4"></rect>
                    <rect id="Rectangle-7-Copy-6" x="40" y="120" width="61" height="8" rx="4"></rect>
                </g>
                <path d="M230,3.00046981 C230,1.34335609 231.351965,0 233.000578,0 L257.999422,0 C259.656596,0 261,1.33883798 261,3.00046981 L261,105.99953 C261,107.656644 259.934622,108.175191 258.629011,107.164396 L245.5,97 L232.370989,107.164396 C231.061528,108.178172 230,107.661162 230,105.99953 L230,3.00046981 Z" id="Rectangle-6" stroke="#39B382" stroke-width="4" fill="#49E2A5"></path>
            </g>
        </g>
    </g>
</svg>