<?xml version="1.0" encoding="UTF-8" standalone="no"?>
<svg width="402px" height="154px" viewBox="0 0 402 154" version="1.1" xmlns="http://www.w3.org/2000/svg" xmlns:xlink="http://www.w3.org/1999/xlink">
    <!-- Generator: Sketch 3.8.3 (29802) - http://www.bohemiancoding.com/sketch -->
    <title>api-first</title>
    <desc>Created with Sketch.</desc>
    <defs>
        <rect id="path-1" x="12" y="0" width="173" height="125"></rect>
        <mask id="mask-2" maskContentUnits="userSpaceOnUse" maskUnits="objectBoundingBox" x="0" y="0" width="173" height="125" fill="white">
            <use xlink:href="#path-1"></use>
        </mask>
        <rect id="path-3" x="20.1484375" y="13.3085938" width="156.703125" height="100.762695" rx="2"></rect>
        <mask id="mask-4" maskContentUnits="userSpaceOnUse" maskUnits="objectBoundingBox" x="0" y="0" width="156.703125" height="100.762695" fill="white">
            <use xlink:href="#path-3"></use>
        </mask>
        <path d="M5.4000554e-13,121 C-8.57387763e-08,121 196,121 196,121 C196,136.554688 181.578125,136.554688 98,136.554688 C14.421875,136.554688 -8.57387761e-08,136.554688 5.4000554e-13,121 Z" id="path-5"></path>
        <mask id="mask-6" maskContentUnits="userSpaceOnUse" maskUnits="objectBoundingBox" x="0" y="0" width="196" height="15.5546875" fill="white">
            <use xlink:href="#path-5"></use>
        </mask>
        <rect id="path-7" x="0.69921875" y="0" width="67.9648438" height="108.54415" rx="11"></rect>
        <mask id="mask-8" maskContentUnits="userSpaceOnUse" maskUnits="objectBoundingBox" x="0" y="0" width="67.9648438" height="108.54415" fill="white">
            <use xlink:href="#path-7"></use>
        </mask>
        <rect id="path-9" x="7" y="16" width="54.125" height="70.09375" rx="4"></rect>
        <mask id="mask-10" maskContentUnits="userSpaceOnUse" maskUnits="objectBoundingBox" x="0" y="0" width="54.125" height="70.09375" fill="white">
            <use xlink:href="#path-9"></use>
        </mask>
        <circle id="path-11" cx="34" cy="96" r="6"></circle>
        <mask id="mask-12" maskContentUnits="userSpaceOnUse" maskUnits="objectBoundingBox" x="0" y="0" width="12" height="12" fill="white">
            <use xlink:href="#path-11"></use>
        </mask>
        <polygon id="path-13" points="31.5063392 0.681829081 62.5043434 18.5785352 62.5043434 54.3719473 31.5063392 72.2686534 0.508334996 54.3719473 0.508334996 18.5785352"></polygon>
        <mask id="mask-14" maskContentUnits="userSpaceOnUse" maskUnits="objectBoundingBox" x="0" y="0" width="61.9960084" height="71.5868243" fill="white">
            <use xlink:href="#path-13"></use>
        </mask>
        <circle id="path-15" cx="307.988281" cy="42.4101562" r="12"></circle>
        <mask id="mask-16" maskContentUnits="userSpaceOnUse" maskUnits="objectBoundingBox" x="0" y="0" width="24" height="24" fill="white">
            <use xlink:href="#path-15"></use>
        </mask>
        <polygon id="path-17" points="284.180913 119.102788 298.680913 148.102788 269.680913 148.102788"></polygon>
        <mask id="mask-18" maskContentUnits="userSpaceOnUse" maskUnits="objectBoundingBox" x="0" y="0" width="29" height="29" fill="white">
            <use xlink:href="#path-17"></use>
        </mask>
        <rect id="path-19" x="228.328305" y="60.3754195" width="22.8400002" height="22.8400002" rx="4"></rect>
        <mask id="mask-20" maskContentUnits="userSpaceOnUse" maskUnits="objectBoundingBox" x="0" y="0" width="22.8400002" height="22.8400002" fill="white">
            <use xlink:href="#path-19"></use>
        </mask>
    </defs>
    <g id="Page-4" stroke="none" stroke-width="1" fill="none" fill-rule="evenodd">
        <g id="api-first" stroke="#444444">
            <g id="Group-8">
                <g id="Group-7" transform="translate(11.816406, 6.410156)">
                    <use id="Rectangle-15" mask="url(#mask-2)" stroke-width="8" fill="#FFFFFF" xlink:href="#path-1"></use>
                    <use id="Rectangle-15-Copy" mask="url(#mask-4)" stroke-width="8" fill="#FFFFFF" xlink:href="#path-3"></use>
                    <path d="M76.3029785,74.1994121 C76.3029785,74.1994121 98.5,89.6237817 120.697021,74.1994121" id="Path-15" stroke-width="4" stroke-linecap="round"></path>
                    <g id="Group-5" transform="translate(79.950682, 48.665490)" stroke-width="4" stroke-linecap="round">
                        <path d="M0,0.00910342573 C0,0.00910342573 5.87319385,4.0902957 11.7463877,0.00910342573" id="Path-15" transform="translate(5.873194, 0.916035) scale(1, -1) translate(-5.873194, -0.916035) "></path>
                        <path d="M25.5339218,0.00910342573 C25.5339218,0.00910342573 31.4071156,4.0902957 37.2803095,0.00910342573" id="Path-15-Copy" transform="translate(31.407116, 0.916035) scale(1, -1) translate(-31.407116, -0.916035) "></path>
                    </g>
                    <use id="Rectangle-16" mask="url(#mask-6)" stroke-width="8" fill="#FFFFFF" xlink:href="#path-5"></use>
                </g>
                <g id="Group-6" transform="translate(0.148438, 34.410156)">
                    <g id="Group-4" stroke-width="8" fill="#FFFFFF">
                        <use id="Rectangle-13" mask="url(#mask-8)" xlink:href="#path-7"></use>
                        <use id="Rectangle-13-Copy" mask="url(#mask-10)" xlink:href="#path-9"></use>
                        <use id="Oval-11" mask="url(#mask-12)" xlink:href="#path-11"></use>
                    </g>
                    <path d="M22,57 C22,57 34.1704102,65.4570312 46.3408203,57" id="Path-15" stroke-width="4" stroke-linecap="round"></path>
                    <g id="Group-5" transform="translate(24.000000, 43.000000)" stroke-width="4" stroke-linecap="round">
                        <path d="M0,0.00499131944 C0,0.00499131944 3.22021484,2.2426692 6.44042969,0.00499131944" id="Path-15" transform="translate(3.220215, 0.502253) scale(1, -1) translate(-3.220215, -0.502253) "></path>
                        <path d="M14,0.00499131944 C14,0.00499131944 17.2202148,2.2426692 20.4404297,0.00499131944" id="Path-15-Copy" transform="translate(17.220215, 0.502253) scale(1, -1) translate(-17.220215, -0.502253) "></path>
                    </g>
                </g>
                <g id="Group" transform="translate(338.988281, 38.410156)">
                    <use id="Polygon-1" mask="url(#mask-14)" stroke-width="12" xlink:href="#path-13"></use>
                    <polyline id="Path-2" stroke-width="6" stroke-linecap="round" stroke-linejoin="round" points="5.64939584 46.437363 22.4132837 36.8376485 39.0894623 46.4419247"></polyline>
                    <polyline id="Path-2-Copy" stroke-width="6" stroke-linecap="round" stroke-linejoin="round" points="30.1167616 40.2938659 44.1633501 32.2501924 58.1364464 40.2976882"></polyline>
                </g>
                <path d="M203.703125,70.8554687 C203.703125,70.8554687 224.195312,64.2187501 238.347656,71.1640625 C252.5,78.1093749 273.351562,94.8750002 293.0625,89.4023437 C312.773438,83.9296873 333.21875,70.4257812 333.21875,70.4257812" id="Path-22" stroke-width="4" stroke-linecap="round" stroke-linejoin="round" stroke-dasharray="3,10"></path>
                <path d="M199.085938,32.1835938 C199.085938,32.1835938 217.535156,0.70703125 244.539062,0.70703125 C271.542969,0.70703125 309.742188,56.8398438 333.96875,56.8398438" id="Path-23" stroke-width="4" stroke-linecap="round" stroke-linejoin="round" stroke-dasharray="3,10"></path>
                <path d="M211.476562,105.050781 C211.476562,105.050781 275.089844,161.445312 289.203125,131.355469 C303.316406,101.265625 333.011719,90.5820312 333.011719,90.5820312" id="Path-21" stroke-width="4" stroke-linecap="round" stroke-linejoin="round" stroke-dasharray="3,10"></path>
                <use id="Oval-4" mask="url(#mask-16)" stroke-width="8" fill="#88FF9F" xlink:href="#path-15"></use>
                <use id="Triangle-1-Copy-5" mask="url(#mask-18)" stroke-width="8" fill="#FF8888" transform="translate(284.180913, 133.602788) rotate(-330.000000) translate(-284.180913, -133.602788) " xlink:href="#path-17"></use>
                <use id="Rectangle-3-Copy-4" mask="url(#mask-20)" stroke-width="8" fill="#FFFD88" transform="translate(239.748305, 71.795420) rotate(-330.000000) translate(-239.748305, -71.795420) " xlink:href="#path-19"></use>
            </g>
        </g>
    </g>
</svg>