<?xml version="1.0" encoding="UTF-8" standalone="no"?>
<svg width="15px" height="20px" viewBox="0 0 15 20" version="1.1" xmlns="http://www.w3.org/2000/svg" xmlns:xlink="http://www.w3.org/1999/xlink">
    <!-- Generator: Sketch 42 (36781) - http://www.bohemiancoding.com/sketch -->
    <title>collapse-all</title>
    <desc>Created with Sketch.</desc>
    <defs></defs>
    <g id="Page-1" stroke="none" stroke-width="1" fill="none" fill-rule="evenodd">
        <g id="Artboard" transform="translate(-1025.000000, -489.000000)" stroke-width="1.5">
            <g id="Group-14" transform="translate(1026.000000, 488.000000)">
                <g id="collapse-all">
                    <g id="Group-9" transform="translate(6.882353, 3.793103) scale(1, -1) translate(-6.882353, -3.793103) translate(3.058824, 0.000000)">
                        <polyline id="Path-4-Copy-3" stroke="#7C879D" transform="translate(3.807847, 3.650862) rotate(-225.000000) translate(-3.807847, -3.650862) " points="1.51372932 1.375 1.51372932 5.92672414 6.10196461 5.92672414"></polyline>
                        <path d="M3.82352941,1.13793103 L3.82352941,5.75244054" id="Line-Copy-20" stroke="#7C859D" stroke-linecap="square"></path>
                    </g>
                    <path d="M0.382352941,9.86206897 L12.7094109,9.86206897" id="Line-Copy-18" stroke="#7C869D" stroke-linecap="square"></path>
                    <path d="M0.382352941,12.137931 L12.7094109,12.137931" id="Line-Copy-17" stroke="#7C869D" stroke-linecap="square"></path>
                    <g id="Group-11" transform="translate(6.882353, 18.206897) scale(1, -1) translate(-6.882353, -18.206897) translate(3.058824, 14.413793)">
                        <path d="M3.82352941,1.89655172 L3.82352941,6.51106123" id="Line-Copy-19" stroke="#7C859D" stroke-linecap="square"></path>
                        <polyline id="Path-4-Copy-2" stroke="#7C879D" transform="translate(3.807847, 3.650862) scale(1, -1) rotate(-225.000000) translate(-3.807847, -3.650862) " points="1.51372932 1.375 1.51372932 5.92672414 6.10196461 5.92672414"></polyline>
                    </g>
                </g>
            </g>
        </g>
    </g>
</svg>