<?xml version="1.0" encoding="UTF-8" standalone="no"?>
<svg width="304px" height="158px" viewBox="0 0 304 158" version="1.1" xmlns="http://www.w3.org/2000/svg" xmlns:xlink="http://www.w3.org/1999/xlink">
    <!-- Generator: Sketch 3.8.3 (29802) - http://www.bohemiancoding.com/sketch -->
    <title>data-flexibility</title>
    <desc>Created with Sketch.</desc>
    <defs>
        <polygon id="path-1" points="26.9769202 0.583807868 53.5185848 15.9076451 53.5185848 46.5553194 26.9769202 61.8791566 0.435255666 46.5553194 0.435255666 15.9076451"></polygon>
        <mask id="mask-2" maskContentUnits="userSpaceOnUse" maskUnits="objectBoundingBox" x="0" y="0" width="53.0833292" height="61.2953488" fill="white">
            <use xlink:href="#path-1"></use>
        </mask>
        <path d="M1.65371094,-2.23895708e-09 C1.65371093,-4.61732344e-09 31.4205078,-2.23895704e-09 31.4205078,-2.23895708e-09 C33.6254542,1.28301888 33.6254573,8.98113224 31.4205078,10.2641509 C31.4205078,10.2641509 1.65371093,10.2641509 1.65371094,10.2641509 C-0.551237021,8.98113207 -0.551236946,1.28301886 1.65371094,-2.23895708e-09 Z" id="path-3"></path>
        <mask id="mask-4" maskContentUnits="userSpaceOnUse" maskUnits="objectBoundingBox" x="0" y="0" width="33.0742188" height="10.2641509" fill="white">
            <use xlink:href="#path-3"></use>
        </mask>
        <path d="M1.65371094,11.8679245 C1.65371093,11.8679245 31.4205078,11.8679245 31.4205078,11.8679245 C33.6254542,13.1509434 33.6254573,20.8490568 31.4205078,22.1320755 C31.4205078,22.1320755 1.65371093,22.1320755 1.65371094,22.1320755 C-0.551237021,20.8490566 -0.551236946,13.1509434 1.65371094,11.8679245 Z" id="path-5"></path>
        <mask id="mask-6" maskContentUnits="userSpaceOnUse" maskUnits="objectBoundingBox" x="0" y="0" width="33.0742188" height="10.2641509" fill="white">
            <use xlink:href="#path-5"></use>
        </mask>
        <path d="M1.65371094,23.7358491 C1.65371093,23.7358491 31.4205078,23.7358491 31.4205078,23.7358491 C33.6254542,25.0188679 33.6254573,32.7169813 31.4205078,34 C31.4205078,34 1.65371093,34 1.65371094,34 C-0.551237021,32.7169811 -0.551236946,25.0188679 1.65371094,23.7358491 Z" id="path-7"></path>
        <mask id="mask-8" maskContentUnits="userSpaceOnUse" maskUnits="objectBoundingBox" x="0" y="0" width="33.0742188" height="10.2641509" fill="white">
            <use xlink:href="#path-7"></use>
        </mask>
        <path d="M6,3.99484381 C6,1.7885525 7.78396347,0 10.001832,0 L32.2548828,0 L38,6.05273438 L38,34.0023411 C38,36.2101872 36.2109725,38 33.9957423,38 L10.0042577,38 C7.79276724,38 6,36.2181492 6,34.0051562 L6,3.99484381 Z" id="path-9"></path>
        <mask id="mask-10" maskContentUnits="userSpaceOnUse" maskUnits="objectBoundingBox" x="0" y="0" width="32" height="38" fill="white">
            <use xlink:href="#path-9"></use>
        </mask>
        <path d="M0,9.99484381 C0,7.7885525 1.78396347,6 4.00183196,6 L26.2548828,6 L32,12.0527344 L32,40.0023411 C32,42.2101872 30.2109725,44 27.9957423,44 L4.0042577,44 C1.79276724,44 0,42.2181492 0,40.0051562 L0,9.99484381 Z" id="path-11"></path>
        <mask id="mask-12" maskContentUnits="userSpaceOnUse" maskUnits="objectBoundingBox" x="0" y="0" width="32" height="38" fill="white">
            <use xlink:href="#path-11"></use>
        </mask>
        <circle id="path-13" cx="20.2448936" cy="24.2770225" r="8.72297749"></circle>
        <mask id="mask-14" maskContentUnits="userSpaceOnUse" maskUnits="objectBoundingBox" x="0" y="0" width="17.445955" height="17.445955" fill="white">
            <use xlink:href="#path-13"></use>
        </mask>
        <circle id="path-15" cx="47.2448936" cy="6.83106753" r="6.09060443"></circle>
        <mask id="mask-16" maskContentUnits="userSpaceOnUse" maskUnits="objectBoundingBox" x="0" y="0" width="12.1812089" height="12.1812089" fill="white">
            <use xlink:href="#path-15"></use>
        </mask>
        <circle id="path-17" cx="5.43131171" cy="6.83106753" r="5.36529089"></circle>
        <mask id="mask-18" maskContentUnits="userSpaceOnUse" maskUnits="objectBoundingBox" x="0" y="0" width="10.7305818" height="10.7305818" fill="white">
            <use xlink:href="#path-17"></use>
        </mask>
        <polygon id="path-19" points="212.751668 74 224.009998 80.5 224.009998 93.5 212.751668 100 201.493338 93.5 201.493338 80.5"></polygon>
        <mask id="mask-20" maskContentUnits="userSpaceOnUse" maskUnits="objectBoundingBox" x="0" y="0" width="22.5166605" height="26" fill="white">
            <use xlink:href="#path-19"></use>
        </mask>
        <polygon id="path-21" points="229.948151 135.764641 218.634443 137.848897 220.718699 126.535188 218.634443 115.22148 229.948151 117.305736 241.26186 115.22148 239.177603 126.535188 241.26186 137.848897"></polygon>
        <mask id="mask-22" maskContentUnits="userSpaceOnUse" maskUnits="objectBoundingBox" x="0" y="0" width="22.627417" height="22.627417" fill="white">
            <use xlink:href="#path-21"></use>
        </mask>
        <polygon id="path-23" points="233.009998 21.2106856 247.509998 50.2106856 218.509998 50.2106856"></polygon>
        <mask id="mask-24" maskContentUnits="userSpaceOnUse" maskUnits="objectBoundingBox" x="0" y="0" width="29" height="29" fill="white">
            <use xlink:href="#path-23"></use>
        </mask>
        <polygon id="path-25" points="111.25833 75 122.51666 81.5 122.51666 94.5 111.25833 101 100 94.5 100 81.5"></polygon>
        <mask id="mask-26" maskContentUnits="userSpaceOnUse" maskUnits="objectBoundingBox" x="0" y="0" width="22.5166605" height="26" fill="white">
            <use xlink:href="#path-25"></use>
        </mask>
        <polygon id="path-27" points="35.3137085 97.5431606 24 99.627417 26.0842564 88.3137085 24 77 35.3137085 79.0842564 46.627417 77 44.5431606 88.3137085 46.627417 99.627417"></polygon>
        <mask id="mask-28" maskContentUnits="userSpaceOnUse" maskUnits="objectBoundingBox" x="0" y="0" width="22.627417" height="22.627417" fill="white">
            <use xlink:href="#path-27"></use>
        </mask>
        <polygon id="path-29" points="75.3842609 73 89.8842609 102 60.8842609 102"></polygon>
        <mask id="mask-30" maskContentUnits="userSpaceOnUse" maskUnits="objectBoundingBox" x="0" y="0" width="29" height="29" fill="white">
            <use xlink:href="#path-29"></use>
        </mask>
    </defs>
    <g id="Page-4" stroke="none" stroke-width="1" fill="none" fill-rule="evenodd">
        <g id="data-flexibility" stroke="#444444">
            <g id="Group-22">
                <g id="Group" transform="translate(137.004315, 57.000000)">
                    <use id="Polygon-1" mask="url(#mask-2)" stroke-width="10" xlink:href="#path-1"></use>
                    <polyline id="Path-2" stroke-width="5" stroke-linecap="round" stroke-linejoin="round" points="4.83722656 39.761428 19.191102 31.541789 33.4698773 39.7653339"></polyline>
                    <polyline id="Path-2-Copy" stroke-width="5" stroke-linecap="round" stroke-linejoin="round" points="25.7871113 34.5011332 37.8143321 27.6138355 49.778626 34.504406"></polyline>
                </g>
                <g id="Group-21" transform="translate(253.521916, 67.500000)" stroke-width="8" fill="#FFFFFF">
                    <use id="Rectangle-28" mask="url(#mask-4)" xlink:href="#path-3"></use>
                    <use id="Rectangle-28-Copy" mask="url(#mask-6)" xlink:href="#path-5"></use>
                    <use id="Rectangle-28-Copy-2" mask="url(#mask-8)" xlink:href="#path-7"></use>
                </g>
                <g id="Group-20" transform="translate(253.521916, 0.710686)" stroke-width="8" fill="#FFFFFF">
                    <use id="Rectangle-31" mask="url(#mask-10)" xlink:href="#path-9"></use>
                    <use id="Rectangle-31-Copy" mask="url(#mask-12)" xlink:href="#path-11"></use>
                </g>
                <g id="Group-19" transform="translate(276.009998, 140.990002) scale(1, -1) translate(-276.009998, -140.990002) translate(249.009998, 124.490002)">
                    <use id="Oval-18" mask="url(#mask-14)" stroke-width="8" fill="#FFFFFF" xlink:href="#path-13"></use>
                    <use id="Oval-18-Copy" mask="url(#mask-16)" stroke-width="8" fill="#FFFFFF" xlink:href="#path-15"></use>
                    <use id="Oval-18-Copy-2" mask="url(#mask-18)" stroke-width="8" fill="#FFFFFF" xlink:href="#path-17"></use>
                    <path d="M27,20 L43.5,9.5" id="Line" stroke-width="4" stroke-linecap="round"></path>
                    <path d="M15.5,18.5 L7.5,9.5" id="Line" stroke-width="4" stroke-linecap="round"></path>
                </g>
                <path d="M210.197266,159.291016 C210.197266,159.291016 237.591797,108.947266 237.591797,82.2597656" id="Path-42" stroke-width="4" stroke-linecap="round" stroke-linejoin="round" stroke-dasharray="3,10" transform="translate(223.894531, 120.775391) rotate(-270.000000) translate(-223.894531, -120.775391) "></path>
                <path d="M236.912109,85.9667969 C236.912109,85.9667969 202.267578,51.7558594 202.267578,17.5449219" id="Path-42" stroke-width="4" stroke-linecap="round" stroke-linejoin="round" stroke-dasharray="3,10" transform="translate(219.589844, 51.755859) rotate(-270.000000) translate(-219.589844, -51.755859) "></path>
                <path d="M219.009998,115.009998 L219.009998,60.9267292" id="Line" stroke-width="4" stroke-linecap="round" stroke-linejoin="round" stroke-dasharray="3,10" transform="translate(219.009998, 88.000000) rotate(-270.000000) translate(-219.009998, -88.000000) "></path>
                <path d="M1,88 L136.004315,88" id="Line-Copy-2" stroke-width="4" stroke-linecap="round" stroke-linejoin="round" stroke-dasharray="3,10"></path>
                <use id="Polygon-2" mask="url(#mask-20)" stroke-width="8" fill="#88F4FF" xlink:href="#path-19"></use>
                <use id="Star-1-Copy-4" mask="url(#mask-22)" stroke-width="8" fill="#FFFD88" transform="translate(229.948151, 126.535188) rotate(-300.000000) translate(-229.948151, -126.535188) " xlink:href="#path-21"></use>
                <use id="Triangle-1-Copy-6" mask="url(#mask-24)" stroke-width="8" fill="#88FF9F" transform="translate(233.009998, 35.710686) rotate(-345.000000) translate(-233.009998, -35.710686) " xlink:href="#path-23"></use>
                <use id="Polygon-2" mask="url(#mask-26)" stroke-width="8" fill="#88F4FF" xlink:href="#path-25"></use>
                <use id="Star-1-Copy-4" mask="url(#mask-28)" stroke-width="8" fill="#FFFD88" transform="translate(35.313708, 88.313708) rotate(-300.000000) translate(-35.313708, -88.313708) " xlink:href="#path-27"></use>
                <use id="Triangle-1-Copy-6" mask="url(#mask-30)" stroke-width="8" fill="#88FF9F" transform="translate(75.384261, 87.500000) rotate(-345.000000) translate(-75.384261, -87.500000) " xlink:href="#path-29"></use>
            </g>
        </g>
    </g>
</svg>