<?xml version="1.0" encoding="UTF-8" standalone="no"?>
<svg width="349px" height="184px" viewBox="0 0 349 184" version="1.1" xmlns="http://www.w3.org/2000/svg" xmlns:xlink="http://www.w3.org/1999/xlink">
    <!-- Generator: Sketch 3.8.3 (29802) - http://www.bohemiancoding.com/sketch -->
    <title>developer-happiness</title>
    <desc>Created with Sketch.</desc>
    <defs>
        <path d="M77,65.9971369 C77,62.1327249 80.1378734,59 84.0004203,59 L86.9995797,59 C90.8658051,59 93.5004747,62.0944717 92.8830509,65.9193032 L92,71.3896484 L92.9034542,77.0860859 C93.5090597,80.9045352 90.8621266,84 86.9995797,84 L84.0004203,84 C80.1341949,84 77,80.8590466 77,77.0028631 L77,65.9971369 Z" id="path-1"></path>
        <mask id="mask-2" maskContentUnits="userSpaceOnUse" maskUnits="objectBoundingBox" x="0" y="0" width="15.9897445" height="25" fill="white">
            <use xlink:href="#path-1"></use>
        </mask>
        <path d="M3,65.9971369 C3,62.1327249 6.13787336,59 10.0004203,59 L12.9995797,59 C16.8658051,59 19.5004747,62.0944717 18.8830509,65.9193032 L18,71.3896484 L18.9034542,77.0860859 C19.5090597,80.9045352 16.8621266,84 12.9995797,84 L10.0004203,84 C6.13419491,84 3,80.8590466 3,77.0028631 L3,65.9971369 Z" id="path-3"></path>
        <mask id="mask-4" maskContentUnits="userSpaceOnUse" maskUnits="objectBoundingBox" x="0" y="0" width="15.9897445" height="25" fill="white">
            <use xlink:href="#path-3"></use>
        </mask>
        <rect id="path-5" x="4.31803468" y="18.5957031" width="77.3639306" height="96" rx="38.6819653"></rect>
        <mask id="mask-6" maskContentUnits="userSpaceOnUse" maskUnits="objectBoundingBox" x="0" y="0" width="77.3639306" height="96" fill="white">
            <use xlink:href="#path-5"></use>
        </mask>
        <path d="M18.7153035,15.4847079 C17.6239748,15.5872942 16.7785332,15.7103349 16.229492,15.8565946 C9.31250025,17.6992186 1.30664063,23.1296057 0.306640626,33.9267583 C-0.537063484,43.0363603 2.45539367,62.2817579 8.38585687,68.0751779 L9.80982789,51.7903266 C10.6026904,42.7229731 15.8099757,34.703477 23.1360319,29.8305625 C27.111465,33.9543201 33.2273205,36.5957031 40.0867197,36.5957031 C41.8870121,36.5957031 43.6360868,36.4137559 45.3086898,36.0708151 C48.5206555,37.9495776 52.4386658,39.0530062 56.6672889,39.0530062 C58.7945262,39.0530062 60.843158,38.7737659 62.7628431,38.2570538 C65.2684832,40.3217006 68.719725,41.5973421 72.5300572,41.5973421 C73.1683018,41.5973421 73.7964711,41.5615508 74.4118089,41.4922553 C75.9634168,44.6725281 76.9435629,48.1611117 77.2045821,51.8207212 L78.3678692,68.1305438 C83.4834987,65.6616201 87.3359417,60.6424252 87.953853,54.8522342 L90.5244365,30.7643591 C91.0145285,26.1719094 89.361038,22.0630674 86.3636153,19.3279528 C86.3819509,19.0858257 86.3912568,18.8416661 86.3912568,18.5957031 C86.3912568,12.2439759 80.1853864,7.09488366 72.5300572,7.09488366 C70.2609597,7.09488366 68.1192079,7.54726978 66.2286664,8.34926992 C63.396107,7.04526323 60.1362136,6.30269557 56.6672889,6.30269557 C56.4257915,6.30269557 56.1853072,6.30629448 55.9459096,6.31343119 C51.9862732,2.79517103 46.3460692,0.595703125 40.0867197,0.595703125 C29.3840011,0.595703125 20.491466,7.02624302 18.7153035,15.4847079 Z" id="path-7"></path>
        <mask id="mask-8" maskContentUnits="userSpaceOnUse" maskUnits="objectBoundingBox" x="0" y="0" width="90.4434563" height="67.5348407" fill="white">
            <use xlink:href="#path-7"></use>
        </mask>
        <rect id="path-9" x="5.40012479e-13" y="0" width="97.262683" height="70.2765051"></rect>
        <mask id="mask-10" maskContentUnits="userSpaceOnUse" maskUnits="objectBoundingBox" x="0" y="0" width="97.262683" height="70.2765051" fill="white">
            <use xlink:href="#path-9"></use>
        </mask>
        <path d="M6.32379589e-13,68.0276569 C-4.25753105e-08,68.0276569 97.3285672,68.0276569 97.3285672,68.0276569 C97.3285672,79.2294943 90.1670344,79.2294943 48.6642836,79.2294943 C7.16153281,79.2294943 -4.25753104e-08,79.2294943 6.32379589e-13,68.0276569 Z" id="path-11"></path>
        <mask id="mask-12" maskContentUnits="userSpaceOnUse" maskUnits="objectBoundingBox" x="0" y="0" width="97.3285672" height="11.2018374" fill="white">
            <use xlink:href="#path-11"></use>
        </mask>
        <polygon id="path-13" points="13.8730795 0.300227487 27.5223256 8.18062338 27.5223256 23.9414152 13.8730795 31.8218111 0.223833425 23.9414152 0.223833425 8.18062338"></polygon>
        <mask id="mask-14" maskContentUnits="userSpaceOnUse" maskUnits="objectBoundingBox" x="0" y="0" width="27.2984921" height="31.5215836" fill="white">
            <use xlink:href="#path-13"></use>
        </mask>
        <polygon id="path-15" points="11.8990834 131.410156 23.1574136 137.910156 23.1574136 150.910156 11.8990834 157.410156 0.640753114 150.910156 0.640753114 137.910156"></polygon>
        <mask id="mask-16" maskContentUnits="userSpaceOnUse" maskUnits="objectBoundingBox" x="0" y="0" width="22.5166605" height="26" fill="white">
            <use xlink:href="#path-15"></use>
        </mask>
        <circle id="path-17" cx="282.080356" cy="104.510156" r="12"></circle>
        <mask id="mask-18" maskContentUnits="userSpaceOnUse" maskUnits="objectBoundingBox" x="0" y="0" width="24" height="24" fill="white">
            <use xlink:href="#path-17"></use>
        </mask>
        <polygon id="path-19" points="58.8897394 85.2433604 47.5760309 87.3276169 49.6602874 76.0139084 47.5760309 64.7001999 58.8897394 66.7844563 70.2034479 64.7001999 68.1191915 76.0139084 70.2034479 87.3276169"></polygon>
        <mask id="mask-20" maskContentUnits="userSpaceOnUse" maskUnits="objectBoundingBox" x="0" y="0" width="22.627417" height="22.627417" fill="white">
            <use xlink:href="#path-19"></use>
        </mask>
        <rect id="path-21" x="321.927656" y="58.6658782" width="22.8400002" height="22.8400002" rx="4"></rect>
        <mask id="mask-22" maskContentUnits="userSpaceOnUse" maskUnits="objectBoundingBox" x="0" y="0" width="22.8400002" height="22.8400002" fill="white">
            <use xlink:href="#path-21"></use>
        </mask>
    </defs>
    <g id="Page-4" stroke="none" stroke-width="1" fill="none" fill-rule="evenodd">
        <g id="developer-happiness">
            <g id="Group-16">
                <g id="Group-15" transform="translate(129.507812, 0.010156)">
                    <g id="Group-10" transform="translate(0.492188, 0.599609)" stroke="#444444">
                        <use id="Rectangle-26" mask="url(#mask-2)" stroke-width="8" fill="#FFFFFF" transform="translate(84.994872, 71.500000) rotate(-345.000000) translate(-84.994872, -71.500000) " xlink:href="#path-1"></use>
                        <use id="Rectangle-26-Copy" mask="url(#mask-4)" stroke-width="8" fill="#FFFFFF" transform="translate(10.994872, 71.500000) scale(-1, 1) rotate(-345.000000) translate(-10.994872, -71.500000) " xlink:href="#path-3"></use>
                        <g id="Group-14" transform="translate(5.000000, 0.000000)">
                            <use id="Rectangle-23" mask="url(#mask-6)" stroke-width="8" fill="#FFFFFF" xlink:href="#path-5"></use>
                            <use id="Combined-Shape" mask="url(#mask-8)" stroke-width="8" fill="#FFFFFF" xlink:href="#path-7"></use>
                            <path d="M44.2148438,34.4010417 C44.2148438,34.4010417 52.3919274,32.4921873 55.1419271,26.3997396" id="Path-32" stroke-width="4" stroke-linecap="round"></path>
                            <path d="M66.2148438,16.4010417 C66.2148438,16.4010417 69.6718752,14.2877603 71.1419271,10.3997396" id="Path-32" stroke-width="4" stroke-linecap="round" transform="translate(68.678385, 13.400391) scale(1, -1) translate(-68.678385, -13.400391) "></path>
                        </g>
                        <g id="Group-13" transform="translate(29.000000, 53.000000)" stroke-linecap="round" stroke-width="4">
                            <g id="Group-11">
                                <path d="M0.62286152,1.63006254 C0.62286152,1.63006254 6.49605537,5.71125481 12.3692492,1.63006254" id="Path-15" transform="translate(6.496055, 2.536994) scale(1, -1) rotate(-345.000000) translate(-6.496055, -2.536994) "></path>
                                <path d="M9,8.5 L9,13.5" id="Line"></path>
                            </g>
                            <g id="Group-12" transform="translate(26.000000, 0.000000)">
                                <path d="M0.156783285,1.63006254 C0.156783285,1.63006254 6.02997713,5.71125481 11.903171,1.63006254" id="Path-15-Copy" transform="translate(6.029977, 2.536994) scale(1, -1) rotate(-15.000000) translate(-6.029977, -2.536994) "></path>
                                <path d="M4,8.5 L4,13.5" id="Line-Copy"></path>
                            </g>
                        </g>
                        <path d="M46,79.4911188 C46,79.4911188 48.6609821,77.6719902 51.3219642,79.4911188" id="Path-15" stroke-width="4" stroke-linecap="round" transform="translate(48.660982, 79.086868) scale(1, -1) translate(-48.660982, -79.086868) "></path>
                        <path d="M39.6009592,90.0101562 C39.6009592,90.0101562 48,95.8465208 56.3990408,90.0101562" id="Path-15" stroke-width="4" stroke-linecap="round"></path>
                    </g>
                    <g id="Group-9" transform="translate(1.205487, 101.343750)">
                        <g id="Group-7" transform="translate(0.607697, 0.290037)">
                            <use id="Rectangle-15" stroke="#444444" mask="url(#mask-10)" stroke-width="8" fill="#FFFFFF" xlink:href="#path-9"></use>
                            <g id="Group-5" transform="translate(38.202691, 27.360325)"></g>
                            <use id="Rectangle-16" stroke="#444444" mask="url(#mask-12)" stroke-width="8" fill="#FFFFFF" xlink:href="#path-11"></use>
                        </g>
                        <g id="Group" transform="translate(35.505030, 22.626306)" stroke="#444444">
                            <use id="Polygon-1" mask="url(#mask-14)" stroke-width="8" xlink:href="#path-13"></use>
                            <polyline id="Path-2" stroke-width="4" stroke-linecap="round" stroke-linejoin="round" points="2.48757931 20.4476066 9.86916522 16.2205968 17.2121304 20.4496152"></polyline>
                            <polyline id="Path-2-Copy" stroke-width="4" stroke-linecap="round" stroke-linejoin="round" points="13.2612115 17.7424613 19.4462982 14.2006179 25.5990243 17.7441444"></polyline>
                        </g>
                    </g>
                </g>
                <use id="Polygon-2" stroke="#444444" mask="url(#mask-16)" stroke-width="8" fill="#88F4FF" xlink:href="#path-15"></use>
                <use id="Oval-4-Copy" stroke="#444444" mask="url(#mask-18)" stroke-width="8" fill="#FF8888" xlink:href="#path-17"></use>
                <use id="Star-1-Copy-2" stroke="#444444" mask="url(#mask-20)" stroke-width="8" fill="#9288FF" xlink:href="#path-19"></use>
                <path d="M132.909991,107.737519 C132.909991,107.737519 114.895994,68.917716 97.5999084,68.9177143 C80.3038231,68.9177127 62.2898231,74.7777313 62.2898231,74.7777313" id="Path-34" stroke="#444444" stroke-width="4" stroke-linecap="round" stroke-linejoin="round" stroke-dasharray="3,10"></path>
                <path d="M81.9796701,188.545676 C81.9796701,188.545676 96.1963907,141.784853 74.7662073,141.784853 C53.3360239,141.784853 43.6074396,161.194086 67.09545,171.534857 C90.5834604,181.875628 108.823641,149.167957 81.9796701,132.236971 C55.1356989,115.305985 49.100843,110.115112 49.100843,82.2746369" id="Path-35" stroke="#444444" stroke-width="4" stroke-linecap="round" stroke-linejoin="round" stroke-dasharray="3,10" transform="translate(72.203448, 135.410156) rotate(-75.000000) translate(-72.203448, -135.410156) "></path>
                <path d="M228.147845,135.291902 C228.147845,135.291902 257.495871,166.992784 280.080356,113.599882" id="Path-36" stroke="#444444" stroke-width="4" stroke-linecap="round" stroke-linejoin="round" stroke-dasharray="3,10"></path>
                <path d="M222.78569,105.154672 C222.78569,105.154672 272.487045,31.9136805 320.565735,65.6834573" id="Path-36-Copy" stroke="#444444" stroke-width="4" stroke-linecap="round" stroke-linejoin="round" stroke-dasharray="3,10"></path>
                <use id="Rectangle-3-Copy-4" stroke="#444444" mask="url(#mask-22)" stroke-width="8" fill="#FFCA88" transform="translate(333.347656, 70.085878) rotate(-330.000000) translate(-333.347656, -70.085878) " xlink:href="#path-21"></use>
            </g>
        </g>
    </g>
</svg>