<?xml version="1.0" encoding="UTF-8" standalone="no"?>
<svg width="83px" height="119px" viewBox="0 0 83 119" version="1.1" xmlns="http://www.w3.org/2000/svg" xmlns:xlink="http://www.w3.org/1999/xlink">
    <!-- Generator: Sketch 42 (36781) - http://www.bohemiancoding.com/sketch -->
    <title>Group 2</title>
    <desc>Created with Sketch.</desc>
    <defs></defs>
    <g id="Page-2" stroke="none" stroke-width="1" fill="none" fill-rule="evenodd">
        <g id="Group-3" transform="translate(-28.000000, -14.000000)">
            <g id="Group-2" transform="translate(28.000000, 14.000000)">
                <path d="M70.1990313,78.770995 L70.1990313,78.770995 C68.538898,78.4702163 66.7598175,78.3157895 64.8642857,78.3157895 C52.6745885,78.3157895 43.0670284,81.3848089 32.1948115,87.419069 C31.1010088,88.0261475 23.7370316,92.3272071 21.8989836,93.271762 C18.8828741,94.8217113 16.7133309,95.5172068 14.8691368,95.5172068 C9.76391344,95.5172068 7.24095681,93.7532085 5.48884972,90.1520528 C5.17256857,89.5019911 4.88375039,88.7984744 4.57075097,87.9372256 C4.40992618,87.4947003 3.87289377,85.9374789 3.76322627,85.6330748 L1.5979649,79.6229599 C3.17997038,73.797663 8.32262368,62.9302161 25.0397975,53.98566 C54.4983829,38.223787 58.8247858,30.5669716 44.0431998,72.2718442 C44.0431998,72.2718442 43.0443968,85.639597 52.1355952,56.2006579 C61.2267935,26.7617188 37.0768544,31.0099712 37.0768544,31.0099712 L33.4215495,24.0801295 L54.4983829,18.0572574 L52.1355952,15.4350843 C56.8585559,15.4350843 64.7714109,10.972759 64.7714109,10.972759 L68.8651084,0.321546053 C92.6830908,38.5497569 77.5905229,68.0601144 70.1990313,78.770995 Z M37.289514,26.8386102 C37.289514,26.8386102 38.413821,28.8613795 38.413821,28.8613795 C57.9384136,28.8613795 63.7133422,38.1696135 63.7133422,38.1696135 L67.5760774,24.1290604 L37.289514,26.8386102 Z" id="Combined-Shape" fill="#D19D47"></path>
                <path d="M0,86.9888507 C0,98.0135764 0,118.539482 21.4473712,118.539482 C42.8947423,118.539482 58.979916,108.992781 67.8639379,108.992781 C76.7479598,108.992781 72.3847003,118.539482 72.3847003,118.539482 C72.3847003,118.539482 80.328866,114.537351 82.0775215,106.241578 C83.8261771,97.9458056 82.9473355,82.3157895 64.8642857,82.3157895 C38.2207337,82.3157895 26.2306387,99.5172068 14.8691368,99.5172068 C3.5076349,99.5172068 1.57644918,91.3645999 0,86.9888507 Z" id="Path" fill="#D09D47"></path>
            </g>
        </g>
    </g>
</svg>