<?xml version="1.0" encoding="UTF-8" standalone="no"?>
<svg width="23px" height="27px" viewBox="0 0 23 27" version="1.1" xmlns="http://www.w3.org/2000/svg" xmlns:xlink="http://www.w3.org/1999/xlink">
    <!-- Generator: Sketch 42 (36781) - http://www.bohemiancoding.com/sketch -->
    <title>Combined Shape</title>
    <desc>Created with Sketch.</desc>
    <defs></defs>
    <g id="Page-1-Copy" stroke="none" stroke-width="1" fill="none" fill-rule="evenodd">
        <g id="Artboard" transform="translate(-137.000000, -99.000000)" fill-rule="nonzero" fill="#FFFFFF">
            <path d="M156.520104,114.843618 L152.826238,112.614913 L150.364435,114.091777 L151.731154,114.916391 C152.3999,115.319881 152.629801,116.214916 152.244651,116.915508 C151.859501,117.6161 151.005149,117.856948 150.336403,117.453458 L145.134027,114.314589 L140.1837,117.284345 L140.1837,117.4327 L148.351902,122.373181 L156.520104,117.4327 L156.520104,114.843618 Z M156.520104,111.465024 L156.520104,107.551738 L148.351902,102.611257 L140.1837,107.551738 L140.1837,113.910541 L144.441635,111.356158 C144.872858,111.097462 145.402781,111.098148 145.833393,111.357959 L147.560558,112.400049 L152.133847,109.656483 C152.56507,109.397787 153.094993,109.398473 153.525604,109.658284 L156.520104,111.465024 Z M148.351902,99.2305822 L159.314774,105.8614 L159.314774,119.123037 L148.351902,125.753855 L137.389029,119.123037 L137.389029,105.8614 L148.351902,99.2305822 Z" id="Combined-Shape"></path>
        </g>
    </g>
</svg>